<mxfile host="app.diagrams.net" modified="2024-03-05T10:23:40.660Z" agent="Mozilla/5.0 (Macintosh; Intel Mac OS X 10_15_7) AppleWebKit/537.36 (KHTML, like Gecko) Chrome/122.0.0.0 Safari/537.36" etag="MmIgkDXcNdbPirNXiXlm" version="24.0.1" type="github">
  <diagram name="第 1 页" id="TAOdgicAipFpl54L88Tn">
    <mxGraphModel dx="1434" dy="795" grid="1" gridSize="10" guides="1" tooltips="1" connect="1" arrows="1" fold="1" page="1" pageScale="1" pageWidth="10000" pageHeight="10000" math="0" shadow="0">
      <root>
        <mxCell id="0" />
        <mxCell id="1" parent="0" />
        <mxCell id="XvL5NV7I00pSstBq485d-1" value="" style="rounded=0;whiteSpace=wrap;html=1;fillColor=none;" vertex="1" parent="1">
          <mxGeometry x="390" y="320" width="600" height="520" as="geometry" />
        </mxCell>
        <mxCell id="XvL5NV7I00pSstBq485d-2" value="" style="endArrow=none;html=1;rounded=0;exitX=0;exitY=0.5;exitDx=0;exitDy=0;" edge="1" parent="1">
          <mxGeometry width="50" height="50" relative="1" as="geometry">
            <mxPoint x="390" y="700" as="sourcePoint" />
            <mxPoint x="990" y="700" as="targetPoint" />
          </mxGeometry>
        </mxCell>
        <mxCell id="XvL5NV7I00pSstBq485d-3" value="" style="endArrow=none;html=1;rounded=0;exitX=0;exitY=0.5;exitDx=0;exitDy=0;" edge="1" parent="1">
          <mxGeometry width="50" height="50" relative="1" as="geometry">
            <mxPoint x="390" y="650" as="sourcePoint" />
            <mxPoint x="990" y="650" as="targetPoint" />
          </mxGeometry>
        </mxCell>
        <mxCell id="XvL5NV7I00pSstBq485d-4" value="" style="endArrow=none;html=1;rounded=0;exitX=0;exitY=0.5;exitDx=0;exitDy=0;entryX=1;entryY=0.5;entryDx=0;entryDy=0;elbow=horizontal;" edge="1" parent="1">
          <mxGeometry width="50" height="50" relative="1" as="geometry">
            <mxPoint x="390" y="590" as="sourcePoint" />
            <mxPoint x="990" y="590" as="targetPoint" />
          </mxGeometry>
        </mxCell>
        <mxCell id="XvL5NV7I00pSstBq485d-6" value="目标网站" style="text;strokeColor=none;align=center;fillColor=none;html=1;verticalAlign=middle;whiteSpace=wrap;rounded=0;fontSize=16;" vertex="1" parent="1">
          <mxGeometry x="480" y="330" width="90" height="30" as="geometry" />
        </mxCell>
        <mxCell id="XvL5NV7I00pSstBq485d-7" value="插件" style="text;strokeColor=none;align=center;fillColor=none;html=1;verticalAlign=middle;whiteSpace=wrap;rounded=0;fontSize=16;" vertex="1" parent="1">
          <mxGeometry x="810" y="330" width="60" height="30" as="geometry" />
        </mxCell>
        <mxCell id="XvL5NV7I00pSstBq485d-9" value="" style="endArrow=none;html=1;rounded=0;entryX=0.5;entryY=0;entryDx=0;entryDy=0;" edge="1" parent="1" target="XvL5NV7I00pSstBq485d-1">
          <mxGeometry width="50" height="50" relative="1" as="geometry">
            <mxPoint x="690" y="590" as="sourcePoint" />
            <mxPoint x="760" y="530" as="targetPoint" />
          </mxGeometry>
        </mxCell>
        <mxCell id="XvL5NV7I00pSstBq485d-10" value="DOM 节点操作" style="text;strokeColor=none;align=center;fillColor=none;html=1;verticalAlign=middle;whiteSpace=wrap;rounded=0;fontSize=14;" vertex="1" parent="1">
          <mxGeometry x="420" y="360" width="110" height="30" as="geometry" />
        </mxCell>
        <mxCell id="XvL5NV7I00pSstBq485d-11" value="增、删、改、查" style="text;strokeColor=none;align=center;fillColor=none;html=1;verticalAlign=middle;whiteSpace=wrap;rounded=0;" vertex="1" parent="1">
          <mxGeometry x="430" y="380" width="120" height="30" as="geometry" />
        </mxCell>
        <mxCell id="XvL5NV7I00pSstBq485d-12" value="DOM 节点设置监听器" style="text;strokeColor=none;align=center;fillColor=none;html=1;verticalAlign=middle;whiteSpace=wrap;rounded=0;fontSize=14;" vertex="1" parent="1">
          <mxGeometry x="420" y="410" width="150" height="30" as="geometry" />
        </mxCell>
        <mxCell id="XvL5NV7I00pSstBq485d-13" value="网络请求" style="text;strokeColor=none;align=center;fillColor=none;html=1;verticalAlign=middle;whiteSpace=wrap;rounded=0;fontSize=14;" vertex="1" parent="1">
          <mxGeometry x="428" y="450" width="60" height="30" as="geometry" />
        </mxCell>
        <mxCell id="XvL5NV7I00pSstBq485d-14" value="跨域、当前网页（cookie）" style="text;strokeColor=none;align=center;fillColor=none;html=1;verticalAlign=middle;whiteSpace=wrap;rounded=0;" vertex="1" parent="1">
          <mxGeometry x="435" y="470" width="175" height="30" as="geometry" />
        </mxCell>
        <mxCell id="XvL5NV7I00pSstBq485d-15" value="网页渲染生命周期通知" style="text;strokeColor=none;align=center;fillColor=none;html=1;verticalAlign=middle;whiteSpace=wrap;rounded=0;fontSize=14;" vertex="1" parent="1">
          <mxGeometry x="428" y="500" width="150" height="30" as="geometry" />
        </mxCell>
        <mxCell id="XvL5NV7I00pSstBq485d-16" value="打开/关闭" style="text;strokeColor=none;align=center;fillColor=none;html=1;verticalAlign=middle;whiteSpace=wrap;rounded=0;fontSize=14;" vertex="1" parent="1">
          <mxGeometry x="730" y="360" width="80" height="30" as="geometry" />
        </mxCell>
        <mxCell id="XvL5NV7I00pSstBq485d-17" value="路由跳转" style="text;strokeColor=none;align=center;fillColor=none;html=1;verticalAlign=middle;whiteSpace=wrap;rounded=0;fontSize=14;" vertex="1" parent="1">
          <mxGeometry x="730" y="400" width="80" height="30" as="geometry" />
        </mxCell>
        <mxCell id="XvL5NV7I00pSstBq485d-18" value="功能暴露" style="text;strokeColor=none;align=center;fillColor=none;html=1;verticalAlign=middle;whiteSpace=wrap;rounded=0;fontSize=14;" vertex="1" parent="1">
          <mxGeometry x="730" y="440" width="80" height="30" as="geometry" />
        </mxCell>
        <mxCell id="XvL5NV7I00pSstBq485d-19" value="新建会话" style="text;strokeColor=none;align=center;fillColor=none;html=1;verticalAlign=middle;whiteSpace=wrap;rounded=0;" vertex="1" parent="1">
          <mxGeometry x="740" y="460" width="90" height="30" as="geometry" />
        </mxCell>
        <mxCell id="XvL5NV7I00pSstBq485d-20" value="终止会话" style="text;strokeColor=none;align=center;fillColor=none;html=1;verticalAlign=middle;whiteSpace=wrap;rounded=0;" vertex="1" parent="1">
          <mxGeometry x="740" y="480" width="90" height="30" as="geometry" />
        </mxCell>
        <mxCell id="XvL5NV7I00pSstBq485d-21" value="继续提问" style="text;strokeColor=none;align=center;fillColor=none;html=1;verticalAlign=middle;whiteSpace=wrap;rounded=0;" vertex="1" parent="1">
          <mxGeometry x="740" y="500" width="90" height="30" as="geometry" />
        </mxCell>
        <mxCell id="XvL5NV7I00pSstBq485d-23" value="会话阶段通知" style="text;strokeColor=none;align=center;fillColor=none;html=1;verticalAlign=middle;whiteSpace=wrap;rounded=0;" vertex="1" parent="1">
          <mxGeometry x="741" y="520" width="110" height="30" as="geometry" />
        </mxCell>
        <mxCell id="XvL5NV7I00pSstBq485d-24" value="阅读全文" style="text;strokeColor=none;align=center;fillColor=none;html=1;verticalAlign=middle;whiteSpace=wrap;rounded=0;" vertex="1" parent="1">
          <mxGeometry x="741" y="540" width="90" height="30" as="geometry" />
        </mxCell>
        <mxCell id="XvL5NV7I00pSstBq485d-25" value="..." style="text;strokeColor=none;align=center;fillColor=none;html=1;verticalAlign=middle;whiteSpace=wrap;rounded=0;" vertex="1" parent="1">
          <mxGeometry x="741" y="560" width="59" height="30" as="geometry" />
        </mxCell>
        <mxCell id="XvL5NV7I00pSstBq485d-26" value="异常处理" style="text;strokeColor=none;align=center;fillColor=none;html=1;verticalAlign=middle;whiteSpace=wrap;rounded=0;fontSize=14;" vertex="1" parent="1">
          <mxGeometry x="660" y="610" width="60" height="30" as="geometry" />
        </mxCell>
        <mxCell id="XvL5NV7I00pSstBq485d-27" value="功能统一控制" style="text;strokeColor=none;align=center;fillColor=none;html=1;verticalAlign=middle;whiteSpace=wrap;rounded=0;fontSize=14;" vertex="1" parent="1">
          <mxGeometry x="630" y="660" width="120" height="30" as="geometry" />
        </mxCell>
        <mxCell id="XvL5NV7I00pSstBq485d-28" value="异步脚本（plugins）" style="text;strokeColor=none;align=center;fillColor=none;html=1;verticalAlign=middle;whiteSpace=wrap;rounded=0;fontSize=16;" vertex="1" parent="1">
          <mxGeometry x="410" y="710" width="160" height="30" as="geometry" />
        </mxCell>
        <mxCell id="XvL5NV7I00pSstBq485d-29" value="开发" style="text;strokeColor=none;align=center;fillColor=none;html=1;verticalAlign=middle;whiteSpace=wrap;rounded=0;fontSize=14;" vertex="1" parent="1">
          <mxGeometry x="495" y="750" width="60" height="30" as="geometry" />
        </mxCell>
        <mxCell id="XvL5NV7I00pSstBq485d-30" value="运行" style="text;strokeColor=none;align=center;fillColor=none;html=1;verticalAlign=middle;whiteSpace=wrap;rounded=0;fontSize=14;" vertex="1" parent="1">
          <mxGeometry x="791" y="750" width="60" height="30" as="geometry" />
        </mxCell>
        <mxCell id="XvL5NV7I00pSstBq485d-31" value="目录结构" style="text;strokeColor=none;align=center;fillColor=none;html=1;verticalAlign=middle;whiteSpace=wrap;rounded=0;fontSize=12;" vertex="1" parent="1">
          <mxGeometry x="518" y="770" width="60" height="30" as="geometry" />
        </mxCell>
        <mxCell id="XvL5NV7I00pSstBq485d-32" value="开发流程" style="text;strokeColor=none;align=center;fillColor=none;html=1;verticalAlign=middle;whiteSpace=wrap;rounded=0;fontSize=12;" vertex="1" parent="1">
          <mxGeometry x="518" y="790" width="60" height="30" as="geometry" />
        </mxCell>
        <mxCell id="XvL5NV7I00pSstBq485d-33" value="运行时机" style="text;strokeColor=none;align=center;fillColor=none;html=1;verticalAlign=middle;whiteSpace=wrap;rounded=0;fontSize=12;" vertex="1" parent="1">
          <mxGeometry x="820" y="770" width="60" height="30" as="geometry" />
        </mxCell>
        <mxCell id="XvL5NV7I00pSstBq485d-34" value="" style="endArrow=none;html=1;rounded=0;" edge="1" parent="1">
          <mxGeometry width="50" height="50" relative="1" as="geometry">
            <mxPoint x="400" y="1810" as="sourcePoint" />
            <mxPoint x="400" y="1120" as="targetPoint" />
          </mxGeometry>
        </mxCell>
        <mxCell id="XvL5NV7I00pSstBq485d-35" value="" style="endArrow=none;html=1;rounded=0;" edge="1" parent="1">
          <mxGeometry width="50" height="50" relative="1" as="geometry">
            <mxPoint x="600" y="1810" as="sourcePoint" />
            <mxPoint x="600" y="1120" as="targetPoint" />
          </mxGeometry>
        </mxCell>
        <mxCell id="XvL5NV7I00pSstBq485d-36" value="目标网页" style="text;html=1;align=center;verticalAlign=middle;whiteSpace=wrap;rounded=0;" vertex="1" parent="1">
          <mxGeometry x="330" y="1120" width="60" height="30" as="geometry" />
        </mxCell>
        <mxCell id="XvL5NV7I00pSstBq485d-38" value="异步脚本" style="text;html=1;align=center;verticalAlign=middle;whiteSpace=wrap;rounded=0;" vertex="1" parent="1">
          <mxGeometry x="620" y="1120" width="60" height="30" as="geometry" />
        </mxCell>
        <mxCell id="XvL5NV7I00pSstBq485d-39" value="" style="endArrow=openThin;html=1;rounded=0;endFill=0;" edge="1" parent="1">
          <mxGeometry width="50" height="50" relative="1" as="geometry">
            <mxPoint x="400" y="1190" as="sourcePoint" />
            <mxPoint x="600" y="1190" as="targetPoint" />
          </mxGeometry>
        </mxCell>
        <mxCell id="XvL5NV7I00pSstBq485d-40" value="iframe onload" style="edgeLabel;html=1;align=center;verticalAlign=middle;resizable=0;points=[];" vertex="1" connectable="0" parent="XvL5NV7I00pSstBq485d-39">
          <mxGeometry x="-0.26" y="2" relative="1" as="geometry">
            <mxPoint x="16" as="offset" />
          </mxGeometry>
        </mxCell>
        <mxCell id="XvL5NV7I00pSstBq485d-46" value="" style="group" vertex="1" connectable="0" parent="1">
          <mxGeometry x="400" y="1210" width="200" height="30" as="geometry" />
        </mxCell>
        <mxCell id="XvL5NV7I00pSstBq485d-41" value="" style="endArrow=none;html=1;rounded=0;endFill=0;startArrow=classicThin;startFill=1;" edge="1" parent="XvL5NV7I00pSstBq485d-46">
          <mxGeometry width="50" height="50" relative="1" as="geometry">
            <mxPoint y="30" as="sourcePoint" />
            <mxPoint x="200" y="30" as="targetPoint" />
          </mxGeometry>
        </mxCell>
        <mxCell id="XvL5NV7I00pSstBq485d-42" value="DOM&amp;nbsp;" style="edgeLabel;html=1;align=center;verticalAlign=middle;resizable=0;points=[];" vertex="1" connectable="0" parent="XvL5NV7I00pSstBq485d-41">
          <mxGeometry x="-0.26" y="2" relative="1" as="geometry">
            <mxPoint x="16" as="offset" />
          </mxGeometry>
        </mxCell>
        <mxCell id="XvL5NV7I00pSstBq485d-43" value="新建操作按钮" style="text;html=1;align=center;verticalAlign=middle;whiteSpace=wrap;rounded=0;" vertex="1" parent="XvL5NV7I00pSstBq485d-46">
          <mxGeometry x="55" width="80" height="30" as="geometry" />
        </mxCell>
        <mxCell id="XvL5NV7I00pSstBq485d-47" value="" style="group" vertex="1" connectable="0" parent="1">
          <mxGeometry x="400" y="1252" width="200" height="30" as="geometry" />
        </mxCell>
        <mxCell id="XvL5NV7I00pSstBq485d-48" value="" style="endArrow=none;html=1;rounded=0;endFill=0;startArrow=classicThin;startFill=1;" edge="1" parent="XvL5NV7I00pSstBq485d-47">
          <mxGeometry width="50" height="50" relative="1" as="geometry">
            <mxPoint y="30" as="sourcePoint" />
            <mxPoint x="200" y="30" as="targetPoint" />
          </mxGeometry>
        </mxCell>
        <mxCell id="XvL5NV7I00pSstBq485d-49" value="DOM&amp;nbsp;" style="edgeLabel;html=1;align=center;verticalAlign=middle;resizable=0;points=[];" vertex="1" connectable="0" parent="XvL5NV7I00pSstBq485d-48">
          <mxGeometry x="-0.26" y="2" relative="1" as="geometry">
            <mxPoint x="16" as="offset" />
          </mxGeometry>
        </mxCell>
        <mxCell id="XvL5NV7I00pSstBq485d-50" value="新建样式节点" style="text;html=1;align=center;verticalAlign=middle;whiteSpace=wrap;rounded=0;" vertex="1" parent="XvL5NV7I00pSstBq485d-47">
          <mxGeometry x="55" width="80" height="30" as="geometry" />
        </mxCell>
        <mxCell id="XvL5NV7I00pSstBq485d-51" value="" style="endArrow=openThin;html=1;rounded=0;endFill=0;" edge="1" parent="1">
          <mxGeometry width="50" height="50" relative="1" as="geometry">
            <mxPoint x="399" y="1320" as="sourcePoint" />
            <mxPoint x="599" y="1320" as="targetPoint" />
          </mxGeometry>
        </mxCell>
        <mxCell id="XvL5NV7I00pSstBq485d-52" value="DOM" style="edgeLabel;html=1;align=center;verticalAlign=middle;resizable=0;points=[];" vertex="1" connectable="0" parent="XvL5NV7I00pSstBq485d-51">
          <mxGeometry x="-0.26" y="2" relative="1" as="geometry">
            <mxPoint x="16" as="offset" />
          </mxGeometry>
        </mxCell>
        <mxCell id="XvL5NV7I00pSstBq485d-54" value="DOM 添加完成" style="text;html=1;align=center;verticalAlign=middle;whiteSpace=wrap;rounded=0;" vertex="1" parent="1">
          <mxGeometry x="450" y="1290" width="90" height="30" as="geometry" />
        </mxCell>
        <mxCell id="XvL5NV7I00pSstBq485d-55" value="" style="endArrow=none;html=1;rounded=0;endFill=0;startArrow=classic;startFill=1;" edge="1" parent="1">
          <mxGeometry width="50" height="50" relative="1" as="geometry">
            <mxPoint x="400" y="1360" as="sourcePoint" />
            <mxPoint x="600" y="1360" as="targetPoint" />
          </mxGeometry>
        </mxCell>
        <mxCell id="XvL5NV7I00pSstBq485d-56" value="DOM-Listener" style="edgeLabel;html=1;align=center;verticalAlign=middle;resizable=0;points=[];" vertex="1" connectable="0" parent="XvL5NV7I00pSstBq485d-55">
          <mxGeometry x="-0.26" y="2" relative="1" as="geometry">
            <mxPoint x="16" as="offset" />
          </mxGeometry>
        </mxCell>
        <mxCell id="XvL5NV7I00pSstBq485d-57" value="判断是否符合执行函数条件" style="text;html=1;align=center;verticalAlign=middle;whiteSpace=wrap;rounded=0;" vertex="1" parent="1">
          <mxGeometry x="606" y="1200" width="170" height="30" as="geometry" />
        </mxCell>
        <mxCell id="XvL5NV7I00pSstBq485d-58" value="" style="endArrow=openThin;html=1;rounded=0;endFill=0;startArrow=none;startFill=0;" edge="1" parent="1">
          <mxGeometry width="50" height="50" relative="1" as="geometry">
            <mxPoint x="400" y="1400" as="sourcePoint" />
            <mxPoint x="600" y="1400" as="targetPoint" />
          </mxGeometry>
        </mxCell>
        <mxCell id="XvL5NV7I00pSstBq485d-59" value="DOM-Listener" style="edgeLabel;html=1;align=center;verticalAlign=middle;resizable=0;points=[];" vertex="1" connectable="0" parent="XvL5NV7I00pSstBq485d-58">
          <mxGeometry x="-0.26" y="2" relative="1" as="geometry">
            <mxPoint x="16" as="offset" />
          </mxGeometry>
        </mxCell>
        <mxCell id="XvL5NV7I00pSstBq485d-60" value="监听器取消" style="text;html=1;align=center;verticalAlign=middle;whiteSpace=wrap;rounded=0;" vertex="1" parent="1">
          <mxGeometry x="445" y="1710" width="100" height="30" as="geometry" />
        </mxCell>
        <mxCell id="XvL5NV7I00pSstBq485d-63" value="..." style="text;html=1;align=center;verticalAlign=middle;whiteSpace=wrap;rounded=0;" vertex="1" parent="1">
          <mxGeometry x="460" y="1410" width="60" height="30" as="geometry" />
        </mxCell>
        <mxCell id="XvL5NV7I00pSstBq485d-64" value="" style="endArrow=none;html=1;rounded=0;endFill=0;startArrow=classic;startFill=1;" edge="1" parent="1">
          <mxGeometry width="50" height="50" relative="1" as="geometry">
            <mxPoint x="400" y="1504" as="sourcePoint" />
            <mxPoint x="600" y="1504" as="targetPoint" />
          </mxGeometry>
        </mxCell>
        <mxCell id="XvL5NV7I00pSstBq485d-65" value="DOM" style="edgeLabel;html=1;align=center;verticalAlign=middle;resizable=0;points=[];" vertex="1" connectable="0" parent="XvL5NV7I00pSstBq485d-64">
          <mxGeometry x="-0.26" y="2" relative="1" as="geometry">
            <mxPoint x="16" as="offset" />
          </mxGeometry>
        </mxCell>
        <mxCell id="XvL5NV7I00pSstBq485d-66" value="" style="endArrow=openThin;html=1;rounded=0;endFill=0;startArrow=none;startFill=0;" edge="1" parent="1">
          <mxGeometry width="50" height="50" relative="1" as="geometry">
            <mxPoint x="400" y="1460" as="sourcePoint" />
            <mxPoint x="600" y="1460" as="targetPoint" />
          </mxGeometry>
        </mxCell>
        <mxCell id="XvL5NV7I00pSstBq485d-67" value="DOM-Listener-Trigger" style="edgeLabel;html=1;align=center;verticalAlign=middle;resizable=0;points=[];" vertex="1" connectable="0" parent="XvL5NV7I00pSstBq485d-66">
          <mxGeometry x="-0.26" y="2" relative="1" as="geometry">
            <mxPoint x="16" as="offset" />
          </mxGeometry>
        </mxCell>
        <mxCell id="XvL5NV7I00pSstBq485d-68" value="GET DOM" style="text;html=1;align=center;verticalAlign=middle;whiteSpace=wrap;rounded=0;" vertex="1" parent="1">
          <mxGeometry x="460" y="1470" width="60" height="30" as="geometry" />
        </mxCell>
        <mxCell id="XvL5NV7I00pSstBq485d-69" value="" style="endArrow=openThin;html=1;rounded=0;endFill=0;startArrow=none;startFill=0;" edge="1" parent="1">
          <mxGeometry width="50" height="50" relative="1" as="geometry">
            <mxPoint x="400" y="1540" as="sourcePoint" />
            <mxPoint x="600" y="1540" as="targetPoint" />
          </mxGeometry>
        </mxCell>
        <mxCell id="XvL5NV7I00pSstBq485d-70" value="DOM" style="edgeLabel;html=1;align=center;verticalAlign=middle;resizable=0;points=[];" vertex="1" connectable="0" parent="XvL5NV7I00pSstBq485d-69">
          <mxGeometry x="-0.26" y="2" relative="1" as="geometry">
            <mxPoint x="16" as="offset" />
          </mxGeometry>
        </mxCell>
        <mxCell id="XvL5NV7I00pSstBq485d-71" value="DOM innnerHTML" style="text;html=1;align=center;verticalAlign=middle;whiteSpace=wrap;rounded=0;" vertex="1" parent="1">
          <mxGeometry x="445" y="1510" width="105" height="30" as="geometry" />
        </mxCell>
        <mxCell id="XvL5NV7I00pSstBq485d-72" value="" style="endArrow=none;html=1;rounded=0;endFill=0;startArrow=classic;startFill=1;" edge="1" parent="1">
          <mxGeometry width="50" height="50" relative="1" as="geometry">
            <mxPoint x="399.5" y="1580" as="sourcePoint" />
            <mxPoint x="599.5" y="1580" as="targetPoint" />
          </mxGeometry>
        </mxCell>
        <mxCell id="XvL5NV7I00pSstBq485d-73" value="Request" style="edgeLabel;html=1;align=center;verticalAlign=middle;resizable=0;points=[];" vertex="1" connectable="0" parent="XvL5NV7I00pSstBq485d-72">
          <mxGeometry x="-0.26" y="2" relative="1" as="geometry">
            <mxPoint x="16" as="offset" />
          </mxGeometry>
        </mxCell>
        <mxCell id="XvL5NV7I00pSstBq485d-74" value="" style="endArrow=none;html=1;rounded=0;endFill=0;startArrow=classic;startFill=1;" edge="1" parent="1">
          <mxGeometry width="50" height="50" relative="1" as="geometry">
            <mxPoint x="400" y="1620" as="sourcePoint" />
            <mxPoint x="600" y="1620" as="targetPoint" />
          </mxGeometry>
        </mxCell>
        <mxCell id="XvL5NV7I00pSstBq485d-75" value="DOM" style="edgeLabel;html=1;align=center;verticalAlign=middle;resizable=0;points=[];" vertex="1" connectable="0" parent="XvL5NV7I00pSstBq485d-74">
          <mxGeometry x="-0.26" y="2" relative="1" as="geometry">
            <mxPoint x="16" as="offset" />
          </mxGeometry>
        </mxCell>
        <mxCell id="XvL5NV7I00pSstBq485d-76" value="更新 DOM(loading)" style="text;html=1;align=center;verticalAlign=middle;whiteSpace=wrap;rounded=0;" vertex="1" parent="1">
          <mxGeometry x="445" y="1590" width="110" height="30" as="geometry" />
        </mxCell>
        <mxCell id="XvL5NV7I00pSstBq485d-77" value="发起请求" style="text;html=1;align=center;verticalAlign=middle;whiteSpace=wrap;rounded=0;" vertex="1" parent="1">
          <mxGeometry x="435" y="1550" width="110" height="30" as="geometry" />
        </mxCell>
        <mxCell id="XvL5NV7I00pSstBq485d-78" value="" style="endArrow=openThin;html=1;rounded=0;endFill=0;startArrow=none;startFill=0;" edge="1" parent="1">
          <mxGeometry width="50" height="50" relative="1" as="geometry">
            <mxPoint x="400" y="1660" as="sourcePoint" />
            <mxPoint x="600" y="1660" as="targetPoint" />
          </mxGeometry>
        </mxCell>
        <mxCell id="XvL5NV7I00pSstBq485d-79" value="Request" style="edgeLabel;html=1;align=center;verticalAlign=middle;resizable=0;points=[];" vertex="1" connectable="0" parent="XvL5NV7I00pSstBq485d-78">
          <mxGeometry x="-0.26" y="2" relative="1" as="geometry">
            <mxPoint x="16" as="offset" />
          </mxGeometry>
        </mxCell>
        <mxCell id="XvL5NV7I00pSstBq485d-80" value="返回请求数据" style="text;html=1;align=center;verticalAlign=middle;whiteSpace=wrap;rounded=0;" vertex="1" parent="1">
          <mxGeometry x="435" y="1630" width="110" height="30" as="geometry" />
        </mxCell>
        <mxCell id="XvL5NV7I00pSstBq485d-81" value="" style="endArrow=none;html=1;rounded=0;endFill=0;startArrow=classic;startFill=1;" edge="1" parent="1">
          <mxGeometry width="50" height="50" relative="1" as="geometry">
            <mxPoint x="400" y="1700" as="sourcePoint" />
            <mxPoint x="600" y="1700" as="targetPoint" />
          </mxGeometry>
        </mxCell>
        <mxCell id="XvL5NV7I00pSstBq485d-82" value="DOM" style="edgeLabel;html=1;align=center;verticalAlign=middle;resizable=0;points=[];" vertex="1" connectable="0" parent="XvL5NV7I00pSstBq485d-81">
          <mxGeometry x="-0.26" y="2" relative="1" as="geometry">
            <mxPoint x="16" as="offset" />
          </mxGeometry>
        </mxCell>
        <mxCell id="XvL5NV7I00pSstBq485d-84" value="更新 DOM(禁用样式)" style="text;html=1;align=center;verticalAlign=middle;whiteSpace=wrap;rounded=0;" vertex="1" parent="1">
          <mxGeometry x="445" y="1670" width="115" height="30" as="geometry" />
        </mxCell>
        <mxCell id="XvL5NV7I00pSstBq485d-85" value="" style="endArrow=none;html=1;rounded=0;endFill=0;startArrow=classic;startFill=1;" edge="1" parent="1">
          <mxGeometry width="50" height="50" relative="1" as="geometry">
            <mxPoint x="400" y="1740" as="sourcePoint" />
            <mxPoint x="600" y="1740" as="targetPoint" />
          </mxGeometry>
        </mxCell>
        <mxCell id="XvL5NV7I00pSstBq485d-86" value="DOM-Listener" style="edgeLabel;html=1;align=center;verticalAlign=middle;resizable=0;points=[];" vertex="1" connectable="0" parent="XvL5NV7I00pSstBq485d-85">
          <mxGeometry x="-0.26" y="2" relative="1" as="geometry">
            <mxPoint x="16" as="offset" />
          </mxGeometry>
        </mxCell>
        <mxCell id="XvL5NV7I00pSstBq485d-87" value="click 事件设置" style="text;html=1;align=center;verticalAlign=middle;whiteSpace=wrap;rounded=0;" vertex="1" parent="1">
          <mxGeometry x="440" y="1330" width="100" height="30" as="geometry" />
        </mxCell>
        <mxCell id="XvL5NV7I00pSstBq485d-88" value="监听器设置完成" style="text;html=1;align=center;verticalAlign=middle;whiteSpace=wrap;rounded=0;" vertex="1" parent="1">
          <mxGeometry x="445" y="1370" width="100" height="30" as="geometry" />
        </mxCell>
        <mxCell id="XvL5NV7I00pSstBq485d-89" value="" style="endArrow=openThin;html=1;rounded=0;endFill=0;startArrow=none;startFill=0;" edge="1" parent="1">
          <mxGeometry width="50" height="50" relative="1" as="geometry">
            <mxPoint x="400" y="1760" as="sourcePoint" />
            <mxPoint x="600" y="1760" as="targetPoint" />
          </mxGeometry>
        </mxCell>
        <mxCell id="XvL5NV7I00pSstBq485d-90" value="DOM" style="edgeLabel;html=1;align=center;verticalAlign=middle;resizable=0;points=[];" vertex="1" connectable="0" parent="XvL5NV7I00pSstBq485d-89">
          <mxGeometry x="-0.26" y="2" relative="1" as="geometry">
            <mxPoint x="16" as="offset" />
          </mxGeometry>
        </mxCell>
        <mxCell id="XvL5NV7I00pSstBq485d-91" value="" style="endArrow=openThin;html=1;rounded=0;endFill=0;startArrow=none;startFill=0;" edge="1" parent="1">
          <mxGeometry width="50" height="50" relative="1" as="geometry">
            <mxPoint x="400" y="1790" as="sourcePoint" />
            <mxPoint x="600" y="1790" as="targetPoint" />
          </mxGeometry>
        </mxCell>
        <mxCell id="XvL5NV7I00pSstBq485d-92" value="DOM-Listener" style="edgeLabel;html=1;align=center;verticalAlign=middle;resizable=0;points=[];" vertex="1" connectable="0" parent="XvL5NV7I00pSstBq485d-91">
          <mxGeometry x="-0.26" y="2" relative="1" as="geometry">
            <mxPoint x="16" as="offset" />
          </mxGeometry>
        </mxCell>
      </root>
    </mxGraphModel>
  </diagram>
</mxfile>
